<mxfile host="app.diagrams.net" modified="2022-10-10T13:49:23.383Z" agent="5.0 (Windows NT 10.0; Win64; x64) AppleWebKit/537.36 (KHTML, like Gecko) Chrome/106.0.0.0 Safari/537.36 Edg/106.0.1370.37" etag="vKaWDvoREMESWxqOngKf" version="20.4.0" type="github">
  <diagram id="V7iEZBFJHS-gHHAxrMbV" name="第 1 页">
    <mxGraphModel dx="981" dy="532" grid="1" gridSize="10" guides="1" tooltips="1" connect="1" arrows="1" fold="1" page="1" pageScale="1" pageWidth="827" pageHeight="1169" math="0" shadow="0">
      <root>
        <mxCell id="0" />
        <mxCell id="1" parent="0" />
        <mxCell id="d_QSjqwno7mQKLbHaJt4-1" value="验收标准交互流程" style="swimlane;childLayout=stackLayout;resizeParent=1;resizeParentMax=0;startSize=20;" vertex="1" parent="1">
          <mxGeometry x="240" y="200" width="610" height="510" as="geometry" />
        </mxCell>
        <mxCell id="d_QSjqwno7mQKLbHaJt4-2" value="VSS" style="swimlane;startSize=20;fillColor=#dae8fc;strokeColor=#6c8ebf;" vertex="1" parent="d_QSjqwno7mQKLbHaJt4-1">
          <mxGeometry y="20" width="140" height="490" as="geometry" />
        </mxCell>
        <mxCell id="d_QSjqwno7mQKLbHaJt4-9" style="edgeStyle=orthogonalEdgeStyle;rounded=0;orthogonalLoop=1;jettySize=auto;html=1;entryX=0.5;entryY=0;entryDx=0;entryDy=0;fontSize=16;" edge="1" parent="d_QSjqwno7mQKLbHaJt4-2" source="d_QSjqwno7mQKLbHaJt4-7" target="d_QSjqwno7mQKLbHaJt4-8">
          <mxGeometry relative="1" as="geometry" />
        </mxCell>
        <mxCell id="d_QSjqwno7mQKLbHaJt4-7" value="&lt;font style=&quot;font-size: 19px;&quot;&gt;质检逻辑&lt;/font&gt;" style="rounded=0;whiteSpace=wrap;html=1;fillColor=#dae8fc;strokeColor=#6c8ebf;" vertex="1" parent="d_QSjqwno7mQKLbHaJt4-2">
          <mxGeometry x="25" y="40" width="90" height="30" as="geometry" />
        </mxCell>
        <mxCell id="d_QSjqwno7mQKLbHaJt4-8" value="&lt;font style=&quot;font-size: 16px;&quot;&gt;获取叶子类目&lt;/font&gt;" style="rounded=0;whiteSpace=wrap;html=1;fillColor=#dae8fc;strokeColor=#6c8ebf;" vertex="1" parent="d_QSjqwno7mQKLbHaJt4-2">
          <mxGeometry x="22.5" y="90" width="95" height="40" as="geometry" />
        </mxCell>
        <mxCell id="d_QSjqwno7mQKLbHaJt4-13" value="&lt;font style=&quot;font-size: 15px;&quot;&gt;sku对应的叶子类目&lt;/font&gt;" style="rounded=0;whiteSpace=wrap;html=1;fillColor=#dae8fc;strokeColor=#6c8ebf;" vertex="1" parent="d_QSjqwno7mQKLbHaJt4-2">
          <mxGeometry x="22.5" y="150" width="95" height="40" as="geometry" />
        </mxCell>
        <mxCell id="d_QSjqwno7mQKLbHaJt4-17" value="&lt;font style=&quot;font-size: 15px;&quot;&gt;工艺code&lt;/font&gt;" style="rounded=0;whiteSpace=wrap;html=1;fillColor=#dae8fc;strokeColor=#6c8ebf;" vertex="1" parent="d_QSjqwno7mQKLbHaJt4-2">
          <mxGeometry x="22.5" y="220" width="95" height="40" as="geometry" />
        </mxCell>
        <mxCell id="d_QSjqwno7mQKLbHaJt4-21" value="&lt;font style=&quot;font-size: 15px;&quot;&gt;商品&lt;br&gt;安装验收标准&lt;/font&gt;" style="rounded=0;whiteSpace=wrap;html=1;fillColor=#dae8fc;strokeColor=#6c8ebf;" vertex="1" parent="d_QSjqwno7mQKLbHaJt4-2">
          <mxGeometry x="22.5" y="290" width="95" height="40" as="geometry" />
        </mxCell>
        <mxCell id="d_QSjqwno7mQKLbHaJt4-31" value="&lt;span style=&quot;font-size: 15px;&quot;&gt;验收报告id&lt;/span&gt;" style="rounded=0;whiteSpace=wrap;html=1;fillColor=#dae8fc;strokeColor=#6c8ebf;" vertex="1" parent="d_QSjqwno7mQKLbHaJt4-2">
          <mxGeometry x="22.5" y="425" width="95" height="40" as="geometry" />
        </mxCell>
        <mxCell id="d_QSjqwno7mQKLbHaJt4-16" style="edgeStyle=orthogonalEdgeStyle;rounded=0;orthogonalLoop=1;jettySize=auto;html=1;exitX=0.5;exitY=1;exitDx=0;exitDy=0;entryX=0;entryY=0.5;entryDx=0;entryDy=0;fontSize=15;" edge="1" parent="d_QSjqwno7mQKLbHaJt4-1" source="d_QSjqwno7mQKLbHaJt4-13" target="d_QSjqwno7mQKLbHaJt4-15">
          <mxGeometry relative="1" as="geometry">
            <Array as="points">
              <mxPoint x="73" y="220" />
            </Array>
          </mxGeometry>
        </mxCell>
        <mxCell id="d_QSjqwno7mQKLbHaJt4-22" style="edgeStyle=orthogonalEdgeStyle;rounded=0;orthogonalLoop=1;jettySize=auto;html=1;exitX=0.5;exitY=1;exitDx=0;exitDy=0;fontSize=15;entryX=1;entryY=0.5;entryDx=0;entryDy=0;" edge="1" parent="d_QSjqwno7mQKLbHaJt4-1" source="d_QSjqwno7mQKLbHaJt4-19" target="d_QSjqwno7mQKLbHaJt4-21">
          <mxGeometry relative="1" as="geometry" />
        </mxCell>
        <mxCell id="d_QSjqwno7mQKLbHaJt4-24" style="edgeStyle=orthogonalEdgeStyle;rounded=0;orthogonalLoop=1;jettySize=auto;html=1;exitX=0.5;exitY=1;exitDx=0;exitDy=0;entryX=0;entryY=0.5;entryDx=0;entryDy=0;fontSize=15;" edge="1" parent="d_QSjqwno7mQKLbHaJt4-1" source="d_QSjqwno7mQKLbHaJt4-17" target="d_QSjqwno7mQKLbHaJt4-19">
          <mxGeometry relative="1" as="geometry">
            <Array as="points">
              <mxPoint x="77" y="290" />
            </Array>
          </mxGeometry>
        </mxCell>
        <mxCell id="d_QSjqwno7mQKLbHaJt4-28" style="edgeStyle=orthogonalEdgeStyle;rounded=0;orthogonalLoop=1;jettySize=auto;html=1;exitX=1;exitY=0.5;exitDx=0;exitDy=0;fontSize=15;" edge="1" parent="d_QSjqwno7mQKLbHaJt4-1" source="d_QSjqwno7mQKLbHaJt4-25" target="d_QSjqwno7mQKLbHaJt4-27">
          <mxGeometry relative="1" as="geometry" />
        </mxCell>
        <mxCell id="d_QSjqwno7mQKLbHaJt4-30" style="edgeStyle=orthogonalEdgeStyle;rounded=0;orthogonalLoop=1;jettySize=auto;html=1;exitX=0.5;exitY=1;exitDx=0;exitDy=0;entryX=1;entryY=0.5;entryDx=0;entryDy=0;fontSize=15;" edge="1" parent="d_QSjqwno7mQKLbHaJt4-1" source="d_QSjqwno7mQKLbHaJt4-27" target="d_QSjqwno7mQKLbHaJt4-29">
          <mxGeometry relative="1" as="geometry" />
        </mxCell>
        <mxCell id="d_QSjqwno7mQKLbHaJt4-32" style="edgeStyle=orthogonalEdgeStyle;rounded=0;orthogonalLoop=1;jettySize=auto;html=1;exitX=0;exitY=0.5;exitDx=0;exitDy=0;entryX=1;entryY=0.5;entryDx=0;entryDy=0;fontSize=15;" edge="1" parent="d_QSjqwno7mQKLbHaJt4-1" source="d_QSjqwno7mQKLbHaJt4-29" target="d_QSjqwno7mQKLbHaJt4-31">
          <mxGeometry relative="1" as="geometry" />
        </mxCell>
        <mxCell id="d_QSjqwno7mQKLbHaJt4-3" value="SDM" style="swimlane;startSize=20;fillColor=#d5e8d4;strokeColor=#82b366;" vertex="1" parent="d_QSjqwno7mQKLbHaJt4-1">
          <mxGeometry x="140" y="20" width="110" height="490" as="geometry" />
        </mxCell>
        <mxCell id="d_QSjqwno7mQKLbHaJt4-12" value="&lt;font style=&quot;font-size: 11px;&quot;&gt;skuId+履约根节点id&lt;br&gt;（Apollo配置）&lt;/font&gt;" style="text;html=1;align=center;verticalAlign=middle;resizable=0;points=[];autosize=1;strokeColor=none;fillColor=none;fontSize=16;" vertex="1" parent="d_QSjqwno7mQKLbHaJt4-3">
          <mxGeometry x="-10" y="60" width="130" height="50" as="geometry" />
        </mxCell>
        <mxCell id="d_QSjqwno7mQKLbHaJt4-25" value="&lt;font style=&quot;font-size: 15px;&quot;&gt;提交验收结果和模板&lt;/font&gt;" style="rounded=0;whiteSpace=wrap;html=1;fillColor=#ffe6cc;strokeColor=#d79b00;" vertex="1" parent="d_QSjqwno7mQKLbHaJt4-3">
          <mxGeometry x="7.5" y="365" width="95" height="40" as="geometry" />
        </mxCell>
        <mxCell id="d_QSjqwno7mQKLbHaJt4-29" value="&lt;font style=&quot;font-size: 15px;&quot;&gt;返回验收报告id&lt;/font&gt;" style="rounded=0;whiteSpace=wrap;html=1;fillColor=#ffe6cc;strokeColor=#d79b00;" vertex="1" parent="d_QSjqwno7mQKLbHaJt4-3">
          <mxGeometry x="7.5" y="425" width="95" height="40" as="geometry" />
        </mxCell>
        <mxCell id="d_QSjqwno7mQKLbHaJt4-4" value="商品中心" style="swimlane;startSize=20;fillColor=#ffe6cc;strokeColor=#d79b00;" vertex="1" parent="d_QSjqwno7mQKLbHaJt4-1">
          <mxGeometry x="250" y="20" width="120" height="490" as="geometry" />
        </mxCell>
        <mxCell id="d_QSjqwno7mQKLbHaJt4-10" value="&lt;font style=&quot;font-size: 16px;&quot;&gt;履约叶子类目&lt;/font&gt;" style="rounded=0;whiteSpace=wrap;html=1;fillColor=#ffe6cc;strokeColor=#d79b00;" vertex="1" parent="d_QSjqwno7mQKLbHaJt4-4">
          <mxGeometry x="20" y="90" width="95" height="40" as="geometry" />
        </mxCell>
        <mxCell id="d_QSjqwno7mQKLbHaJt4-11" style="edgeStyle=orthogonalEdgeStyle;rounded=0;orthogonalLoop=1;jettySize=auto;html=1;exitX=1;exitY=0.5;exitDx=0;exitDy=0;entryX=0;entryY=0.5;entryDx=0;entryDy=0;fontSize=16;" edge="1" parent="d_QSjqwno7mQKLbHaJt4-1" source="d_QSjqwno7mQKLbHaJt4-8" target="d_QSjqwno7mQKLbHaJt4-10">
          <mxGeometry relative="1" as="geometry" />
        </mxCell>
        <mxCell id="d_QSjqwno7mQKLbHaJt4-5" value="中控" style="swimlane;startSize=20;fillColor=#fff2cc;strokeColor=#d6b656;" vertex="1" parent="d_QSjqwno7mQKLbHaJt4-1">
          <mxGeometry x="370" y="20" width="120" height="490" as="geometry" />
        </mxCell>
        <mxCell id="d_QSjqwno7mQKLbHaJt4-15" value="&lt;font style=&quot;font-size: 16px;&quot;&gt;获取工艺&lt;br&gt;信息&lt;/font&gt;" style="rounded=0;whiteSpace=wrap;html=1;fillColor=#fff2cc;strokeColor=#d6b656;" vertex="1" parent="d_QSjqwno7mQKLbHaJt4-5">
          <mxGeometry x="12.5" y="180" width="95" height="40" as="geometry" />
        </mxCell>
        <mxCell id="d_QSjqwno7mQKLbHaJt4-6" value="品质服务" style="swimlane;startSize=20;fillColor=#e1d5e7;strokeColor=#9673a6;" vertex="1" parent="d_QSjqwno7mQKLbHaJt4-1">
          <mxGeometry x="490" y="20" width="120" height="490" as="geometry" />
        </mxCell>
        <mxCell id="d_QSjqwno7mQKLbHaJt4-19" value="&lt;font style=&quot;font-size: 16px;&quot;&gt;获取&lt;br&gt;验收标准&lt;br&gt;&lt;/font&gt;" style="rounded=0;whiteSpace=wrap;html=1;fillColor=#e1d5e7;strokeColor=#9673a6;" vertex="1" parent="d_QSjqwno7mQKLbHaJt4-6">
          <mxGeometry x="12.5" y="250" width="95" height="40" as="geometry" />
        </mxCell>
        <mxCell id="d_QSjqwno7mQKLbHaJt4-27" value="&lt;font style=&quot;font-size: 15px;&quot;&gt;接收验收结果并返回验收id&lt;/font&gt;" style="rounded=0;whiteSpace=wrap;html=1;fillColor=#e1d5e7;strokeColor=#9673a6;" vertex="1" parent="d_QSjqwno7mQKLbHaJt4-6">
          <mxGeometry x="12.5" y="365" width="95" height="40" as="geometry" />
        </mxCell>
        <mxCell id="d_QSjqwno7mQKLbHaJt4-14" style="edgeStyle=orthogonalEdgeStyle;rounded=0;orthogonalLoop=1;jettySize=auto;html=1;exitX=0.5;exitY=1;exitDx=0;exitDy=0;entryX=1;entryY=0.5;entryDx=0;entryDy=0;fontSize=15;" edge="1" parent="d_QSjqwno7mQKLbHaJt4-1" source="d_QSjqwno7mQKLbHaJt4-10" target="d_QSjqwno7mQKLbHaJt4-13">
          <mxGeometry relative="1" as="geometry" />
        </mxCell>
        <mxCell id="d_QSjqwno7mQKLbHaJt4-23" style="edgeStyle=orthogonalEdgeStyle;rounded=0;orthogonalLoop=1;jettySize=auto;html=1;exitX=0.5;exitY=1;exitDx=0;exitDy=0;entryX=1;entryY=0.5;entryDx=0;entryDy=0;fontSize=15;" edge="1" parent="d_QSjqwno7mQKLbHaJt4-1" source="d_QSjqwno7mQKLbHaJt4-15" target="d_QSjqwno7mQKLbHaJt4-17">
          <mxGeometry relative="1" as="geometry" />
        </mxCell>
        <mxCell id="d_QSjqwno7mQKLbHaJt4-26" style="edgeStyle=orthogonalEdgeStyle;rounded=0;orthogonalLoop=1;jettySize=auto;html=1;exitX=0.5;exitY=1;exitDx=0;exitDy=0;entryX=0;entryY=0.5;entryDx=0;entryDy=0;fontSize=15;" edge="1" parent="d_QSjqwno7mQKLbHaJt4-1" source="d_QSjqwno7mQKLbHaJt4-21" target="d_QSjqwno7mQKLbHaJt4-25">
          <mxGeometry relative="1" as="geometry" />
        </mxCell>
      </root>
    </mxGraphModel>
  </diagram>
</mxfile>
